<svg width="9" height="9" viewBox="0 0 9 9" fill="none" xmlns="http://www.w3.org/2000/svg">
<g id="evaDiagonalArrowRightUpFill1">
<path id="evaDiagonalArrowRightUpFill2" d="M8.0058 0.700169C8.0058 0.523315 7.93554 0.353705 7.81049 0.228651C7.68544 0.103596 7.51582 0.0333415 7.33897 0.0333415L2.00435 0C1.8275 0 1.65789 0.070255 1.53283 0.195309C1.40778 0.320364 1.33752 0.489974 1.33752 0.666828C1.33752 0.843681 1.40778 1.01329 1.53283 1.13835C1.65789 1.2634 1.8275 1.33366 2.00435 1.33366H5.71191L0.197246 6.86166C0.134746 6.92365 0.0851378 6.9974 0.0512838 7.07866C0.0174299 7.15992 0 7.24708 0 7.3351C0 7.42313 0.0174299 7.51029 0.0512838 7.59155C0.0851378 7.67281 0.134746 7.74656 0.197246 7.80855C0.259237 7.87105 0.332989 7.92066 0.414248 7.95452C0.495507 7.98837 0.582665 8.0058 0.670694 8.0058C0.758723 8.0058 0.845882 7.98837 0.927141 7.95452C1.0084 7.92066 1.08215 7.87105 1.14414 7.80855L6.67214 2.28055V6.00145C6.67214 6.1783 6.7424 6.34791 6.86745 6.47297C6.99251 6.59802 7.16212 6.66828 7.33897 6.66828C7.51582 6.66828 7.68544 6.59802 7.81049 6.47297C7.93554 6.34791 8.0058 6.1783 8.0058 6.00145V0.700169Z" fill="#232323"/>
</g>
</svg>
