<svg width="41" height="28" viewBox="0 0 41 28" fill="none" xmlns="http://www.w3.org/2000/svg">
<path d="M5.09 26.3525L4.57428 27.2093L4.57428 27.2093L5.09 26.3525ZM2.1675 23.4125L3.02356 22.8956L3.02356 22.8956L2.1675 23.4125ZM0.54 19.1775L-0.438323 19.3846L-0.438012 19.386L0.54 19.1775ZM0.54 9.1325L1.51832 9.33959L1.51863 9.33815L0.54 9.1325ZM2.1675 4.845L3.02571 5.35832L3.02779 5.3548L2.1675 4.845ZM5.09 1.87L5.60573 2.72678L5.61179 2.72308L5.09 1.87ZM13.8575 1.87L13.3357 2.7231L13.3418 2.72676L13.8575 1.87ZM16.78 4.845L15.9197 5.35481L15.9218 5.35832L16.78 4.845ZM18.4075 9.1325L17.4288 9.33816L17.4306 9.34641L18.4075 9.1325ZM18.4075 19.1775L17.4306 18.9636L17.4295 18.969L18.4075 19.1775ZM13.8575 26.3525L14.3732 27.2093L14.3732 27.2093L13.8575 26.3525ZM11.1975 21.89L10.4429 21.2338L10.4429 21.2338L11.1975 21.89ZM12.265 19.2125L11.2837 19.0199L11.2837 19.0199L12.265 19.2125ZM12.265 9.08L11.2837 9.27259L11.2837 9.27259L12.265 9.08ZM11.1975 6.42L10.4429 7.07622L10.4501 7.08436L11.1975 6.42ZM7.7675 6.42L8.50674 7.09353L8.51401 7.08537L7.7675 6.42ZM6.6825 19.23L5.70122 19.4226L5.70157 19.4243L6.6825 19.23ZM7.7675 21.89L8.51401 21.2246L8.51401 21.2246L7.7675 21.89ZM9.4825 26.4375C7.89571 26.4375 6.61936 26.1059 5.60572 25.4957L4.57428 27.2093C5.96397 28.0458 7.61596 28.4375 9.4825 28.4375V26.4375ZM5.60572 25.4957C4.54774 24.8589 3.68874 23.9973 3.02356 22.8956L1.31144 23.9294C2.13959 25.301 3.22893 26.3994 4.57428 27.2093L5.60572 25.4957ZM3.02356 22.8956C2.34103 21.7652 1.83596 20.46 1.51801 18.969L-0.438012 19.386C-0.0792961 21.0683 0.500635 22.5865 1.31144 23.9294L3.02356 22.8956ZM1.51832 18.9704C1.19538 17.4448 1.0325 15.8403 1.0325 14.155H-0.9675C-0.9675 15.9697 -0.792049 17.7135 -0.438322 19.3846L1.51832 18.9704ZM1.0325 14.155C1.0325 12.4697 1.19538 10.8652 1.51832 9.33959L-0.438322 8.92541C-0.792049 10.5965 -0.9675 12.3403 -0.9675 14.155H1.0325ZM1.51863 9.33815C1.8371 7.82263 2.34288 6.4999 3.0257 5.35832L1.3093 4.33168C0.498785 5.68676 -0.080437 7.22237 -0.438625 8.92685L1.51863 9.33815ZM3.02779 5.3548C3.69395 4.23066 4.55221 3.36091 5.60572 2.72676L4.57428 1.01324C3.22446 1.82576 2.13438 2.93934 1.30721 4.3352L3.02779 5.3548ZM5.61179 2.72308C6.62434 2.10375 7.89842 1.7675 9.4825 1.7675V-0.232501C7.61325 -0.232501 5.95899 0.166251 4.56822 1.01692L5.61179 2.72308ZM9.4825 1.7675C11.0535 1.7675 12.3222 2.10313 13.3357 2.72308L14.3793 1.01692C12.9895 0.166866 11.3415 -0.232501 9.4825 -0.232501V1.7675ZM13.3418 2.72676C14.3953 3.36091 15.2536 4.23066 15.9197 5.3548L17.6403 4.3352C16.8131 2.93934 15.723 1.82576 14.3732 1.01324L13.3418 2.72676ZM15.9218 5.35832C16.6046 6.4999 17.1104 7.82263 17.4289 9.33815L19.3861 8.92685C19.0279 7.22237 18.4487 5.68676 17.6382 4.33168L15.9218 5.35832ZM17.4306 9.34641C17.7642 10.8698 17.9325 12.472 17.9325 14.155H19.9325C19.9325 12.338 19.7508 10.5919 19.3844 8.91859L17.4306 9.34641ZM17.9325 14.155C17.9325 15.838 17.7642 17.4402 17.4306 18.9636L19.3844 19.3914C19.7508 17.7181 19.9325 15.972 19.9325 14.155H17.9325ZM17.4295 18.969C17.1115 20.46 16.6065 21.7652 15.9239 22.8956L17.6361 23.9294C18.4469 22.5865 19.0268 21.0683 19.3855 19.386L17.4295 18.969ZM15.9239 22.8956C15.2588 23.9973 14.3998 24.8589 13.3418 25.4957L14.3732 27.2093C15.7186 26.3994 16.8079 25.301 17.6361 23.9294L15.9239 22.8956ZM13.3418 25.4957C12.3271 26.1065 11.0562 26.4375 9.4825 26.4375V28.4375C11.3388 28.4375 12.9845 28.0452 14.3732 27.2093L13.3418 25.4957ZM9.4825 23.695C10.465 23.695 11.3065 23.2886 11.9521 22.5462L10.4429 21.2338C10.1551 21.5648 9.85333 21.695 9.4825 21.695V23.695ZM11.9521 22.5462C12.5922 21.8101 12.9904 20.7087 13.2463 19.4051L11.2837 19.0199C11.0496 20.213 10.7362 20.8966 10.4429 21.2338L11.9521 22.5462ZM13.2463 19.4051C13.5092 18.0653 13.6325 16.3063 13.6325 14.155H11.6325C11.6325 16.2504 11.5108 17.863 11.2837 19.0199L13.2463 19.4051ZM13.6325 14.155C13.6325 11.9925 13.5093 10.2274 13.2463 8.88741L11.2837 9.27259C11.5107 10.4292 11.6325 12.0475 11.6325 14.155H13.6325ZM13.2463 8.88741C12.9908 7.58555 12.592 6.48359 11.9449 5.75564L10.4501 7.08436C10.7364 7.40641 11.0492 8.07778 11.2837 9.27259L13.2463 8.88741ZM11.9521 5.76382C11.3065 5.02143 10.465 4.615 9.4825 4.615V6.615C9.85333 6.615 10.1551 6.74524 10.4429 7.07618L11.9521 5.76382ZM9.4825 4.615C8.50732 4.615 7.67176 5.02449 7.02099 5.75463L8.51401 7.08537C8.81991 6.74217 9.12768 6.615 9.4825 6.615V4.615ZM7.02831 5.74651C6.36361 6.47606 5.95739 7.58214 5.70122 8.88741L7.66378 9.27259C7.89761 8.08119 8.21473 7.41394 8.5067 7.09349L7.02831 5.74651ZM5.70122 8.88741C5.43822 10.2274 5.315 11.9925 5.315 14.155H7.315C7.315 12.0475 7.43678 10.4292 7.66378 9.27259L5.70122 8.88741ZM5.315 14.155C5.315 16.3175 5.43822 18.0826 5.70122 19.4226L7.66378 19.0374C7.43678 17.8808 7.315 16.2625 7.315 14.155H5.315ZM5.70157 19.4243C5.95854 20.7214 6.36478 21.8191 7.02099 22.5554L8.51401 21.2246C8.21355 20.8875 7.89646 20.2119 7.66344 19.0357L5.70157 19.4243ZM7.02099 22.5554C7.67176 23.2855 8.50732 23.695 9.4825 23.695V21.695C9.12768 21.695 8.81991 21.5678 8.51401 21.2246L7.02099 22.5554ZM21.5906 27H20.5906V28H21.5906V27ZM21.5906 21.925L20.7494 21.3842L20.5906 21.6313V21.925H21.5906ZM22.5356 21.015L23.1808 21.779L23.1823 21.7778L22.5356 21.015ZM24.4781 19.4225L23.8592 18.637L23.8534 18.6416L24.4781 19.4225ZM26.8756 17.55L27.488 18.3406L27.4949 18.3352L26.8756 17.55ZM29.1681 15.73L28.5502 14.9437L28.5434 14.9491L29.1681 15.73ZM31.5481 13.7175L30.8754 12.9776L30.8754 12.9776L31.5481 13.7175ZM33.4556 11.495L34.2972 12.0351L34.2972 12.0351L33.4556 11.495ZM33.4731 6.5075L32.6731 7.1075L32.6731 7.1075L33.4731 6.5075ZM29.0106 6.1225L28.3991 5.33116L28.3904 5.33808L29.0106 6.1225ZM27.9431 7.7675L26.9853 7.48015L26.9853 7.48015L27.9431 7.7675ZM27.6281 10.2175V11.2175H28.6281V10.2175H27.6281ZM21.3806 10.2175H20.3806V11.2175H21.3806V10.2175ZM22.5356 5.16L23.4135 5.63885L23.4135 5.63885L22.5356 5.16ZM25.8781 1.905L25.4196 1.01628L25.4167 1.01778L25.8781 1.905ZM36.3431 1.8875L35.8663 2.76655L35.8721 2.76964L36.3431 1.8875ZM39.4406 4.88L38.563 5.35942L38.5649 5.36286L39.4406 4.88ZM39.8606 12.0025L38.9502 11.5887L38.9478 11.5941L39.8606 12.0025ZM38.3031 14.4525L37.5447 13.8007L37.5447 13.8007L38.3031 14.4525ZM36.2556 16.4825L36.8909 17.2548L36.8982 17.2487L36.2556 16.4825ZM34.1906 18.11L34.7879 18.912L34.7906 18.91L34.1906 18.11ZM31.4081 20.21L32.0178 21.0026L32.0178 21.0026L31.4081 20.21ZM29.6231 21.6275L30.2633 22.3957L30.2653 22.394L29.6231 21.6275ZM28.8356 22.38L28.0134 21.8108L26.927 23.38H28.8356V22.38ZM40.2106 22.38H41.2106V21.38H40.2106V22.38ZM40.2106 27V28H41.2106V27H40.2106ZM22.5906 27V21.925H20.5906V27H22.5906ZM22.4318 22.4658C22.4159 22.4905 22.4458 22.443 22.5992 22.2953C22.7349 22.1647 22.9267 21.9936 23.1808 21.779L21.8904 20.251C21.6195 20.4797 21.3913 20.682 21.2119 20.8547C21.0503 21.0103 20.8703 21.1962 20.7494 21.3842L22.4318 22.4658ZM23.1823 21.7778C23.7096 21.3307 24.3493 20.8061 25.1028 20.2034L23.8534 18.6416C23.0902 19.2522 22.4349 19.7893 21.8889 20.2522L23.1823 21.7778ZM25.097 20.208C25.8647 19.6031 26.6617 18.9807 27.488 18.3405L26.2632 16.7594C25.4328 17.4027 24.6315 18.0285 23.8592 18.637L25.097 20.208ZM27.4949 18.3352C28.3247 17.6806 29.0907 17.0725 29.7928 16.5109L28.5434 14.9491C27.8455 15.5075 27.0831 16.1127 26.2563 16.7648L27.4949 18.3352ZM29.7859 16.5163C30.6214 15.8598 31.4331 15.1735 32.2208 14.4574L30.8754 12.9776C30.1231 13.6615 29.3481 14.3168 28.5503 14.9437L29.7859 16.5163ZM32.2208 14.4574C33.0479 13.7055 33.7429 12.8987 34.2972 12.0351L32.614 10.9549C32.1649 11.6546 31.5883 12.3295 30.8754 12.9776L32.2208 14.4574ZM34.2972 12.0351C34.8956 11.1027 35.2081 10.0885 35.2081 9.01H33.2081C33.2081 9.68153 33.0189 10.324 32.614 10.9549L34.2972 12.0351ZM35.2081 9.01C35.2081 7.83207 34.9217 6.77229 34.2731 5.9075L32.6731 7.1075C33.0045 7.54938 33.2081 8.15793 33.2081 9.01H35.2081ZM34.2731 5.9075C33.5357 4.92434 32.398 4.5275 31.1106 4.5275V6.5275C31.9931 6.5275 32.4305 6.78399 32.6731 7.1075L34.2731 5.9075ZM31.1106 4.5275C30.0828 4.5275 29.1419 4.75726 28.3991 5.33121L29.622 6.91378C29.9059 6.69441 30.365 6.5275 31.1106 6.5275V4.5275ZM28.3904 5.33808C27.7056 5.8795 27.2455 6.61279 26.9853 7.48015L28.9009 8.05485C29.0607 7.5222 29.3122 7.15884 29.6308 6.90691L28.3904 5.33808ZM26.9853 7.48015C26.7408 8.29502 26.6281 9.21237 26.6281 10.2175H28.6281C28.6281 9.35596 28.7254 8.63998 28.9009 8.05485L26.9853 7.48015ZM27.6281 9.2175H21.3806V11.2175H27.6281V9.2175ZM22.3806 10.2175C22.3806 8.38851 22.7394 6.87475 23.4135 5.63885L21.6577 4.68115C20.7918 6.26858 20.3806 8.12649 20.3806 10.2175H22.3806ZM23.4135 5.63885C24.0861 4.40575 25.0533 3.46101 26.3394 2.79222L25.4167 1.01778C23.7862 1.86565 22.5251 3.09091 21.6577 4.68115L23.4135 5.63885ZM26.3365 2.79371C27.6332 2.12482 29.2411 1.7675 31.1981 1.7675V-0.232501C29.0018 -0.232501 27.063 0.168513 25.4196 1.01629L26.3365 2.79371ZM31.1981 1.7675C33.135 1.7675 34.6745 2.12013 35.8663 2.76653L36.8199 1.00847C35.2583 0.161533 33.3678 -0.232501 31.1981 -0.232501V1.7675ZM35.8721 2.76964C37.0925 3.4212 37.9762 4.28528 38.563 5.35942L40.3182 4.40058C39.5283 2.95472 38.347 1.82379 36.8141 1.00535L35.8721 2.76964ZM38.5649 5.36286C39.1652 6.45157 39.4731 7.67742 39.4731 9.0625H41.4731C41.4731 7.36758 41.0926 5.8051 40.3163 4.39714L38.5649 5.36286ZM39.4731 9.0625C39.4731 9.99242 39.2951 10.83 38.9502 11.5887L40.771 12.4163C41.2427 11.3784 41.4731 10.2559 41.4731 9.0625H39.4731ZM38.9478 11.5941C38.5911 12.3914 38.1242 13.1263 37.5447 13.8007L39.0615 15.1043C39.7653 14.2854 40.3368 13.3869 40.7734 12.4109L38.9478 11.5941ZM37.5447 13.8007C36.9369 14.5079 36.2929 15.146 35.613 15.7163L36.8982 17.2487C37.6649 16.6056 38.3859 15.8904 39.0615 15.1043L37.5447 13.8007ZM35.6203 15.7102C34.9069 16.2971 34.2304 16.8302 33.5906 17.31L34.7906 18.91C35.4575 18.4098 36.1576 17.8579 36.8909 17.2548L35.6203 15.7102ZM33.5933 17.308C32.4941 18.1265 31.5622 18.8298 30.7984 19.4174L32.0178 21.0026C32.7707 20.4235 33.6938 19.7268 34.7879 18.912L33.5933 17.308ZM30.7984 19.4174C30.0355 20.0042 29.428 20.4864 28.9809 20.861L30.2653 22.394C30.6815 22.0453 31.264 21.5824 32.0178 21.0026L30.7984 19.4174ZM28.9829 20.8593C28.5803 21.1948 28.2086 21.5289 28.0134 21.8108L29.6578 22.9492C29.6507 22.9595 29.6823 22.9155 29.8021 22.8011C29.911 22.697 30.0629 22.5627 30.2633 22.3957L28.9829 20.8593ZM28.8356 23.38H40.2106V21.38H28.8356V23.38ZM39.2106 22.38V27H41.2106V22.38H39.2106ZM40.2106 26H21.5906V28H40.2106V26Z" fill="#E9E9E9"/>
</svg>
