<svg width="41" height="28" viewBox="0 0 41 28" fill="none" xmlns="http://www.w3.org/2000/svg">
<path d="M5.09 26.3525L4.57428 27.2093L4.57428 27.2093L5.09 26.3525ZM2.1675 23.4125L3.02356 22.8956L3.02356 22.8956L2.1675 23.4125ZM0.54 19.1775L-0.438323 19.3846L-0.438012 19.386L0.54 19.1775ZM0.54 9.1325L1.51832 9.33959L1.51863 9.33815L0.54 9.1325ZM2.1675 4.845L3.02571 5.35832L3.02779 5.3548L2.1675 4.845ZM5.09 1.87L5.60573 2.72678L5.61179 2.72308L5.09 1.87ZM13.8575 1.87L13.3357 2.7231L13.3418 2.72676L13.8575 1.87ZM16.78 4.845L15.9197 5.35481L15.9218 5.35832L16.78 4.845ZM18.4075 9.1325L17.4288 9.33816L17.4306 9.34641L18.4075 9.1325ZM18.4075 19.1775L17.4306 18.9636L17.4295 18.969L18.4075 19.1775ZM13.8575 26.3525L14.3732 27.2093L14.3732 27.2093L13.8575 26.3525ZM11.1975 21.89L10.4429 21.2338L10.4429 21.2338L11.1975 21.89ZM12.265 19.2125L11.2837 19.0199L11.2837 19.0199L12.265 19.2125ZM12.265 9.08L11.2837 9.27259L11.2837 9.27259L12.265 9.08ZM11.1975 6.42L10.4429 7.07622L10.4501 7.08436L11.1975 6.42ZM7.7675 6.42L8.50674 7.09353L8.51401 7.08537L7.7675 6.42ZM6.6825 19.23L5.70122 19.4226L5.70157 19.4243L6.6825 19.23ZM7.7675 21.89L8.51401 21.2246L8.51401 21.2246L7.7675 21.89ZM9.4825 26.4375C7.89571 26.4375 6.61936 26.1059 5.60572 25.4957L4.57428 27.2093C5.96397 28.0458 7.61596 28.4375 9.4825 28.4375V26.4375ZM5.60572 25.4957C4.54774 24.8589 3.68874 23.9973 3.02356 22.8956L1.31144 23.9294C2.13959 25.301 3.22893 26.3994 4.57428 27.2093L5.60572 25.4957ZM3.02356 22.8956C2.34103 21.7652 1.83596 20.46 1.51801 18.969L-0.438012 19.386C-0.0792961 21.0683 0.500635 22.5865 1.31144 23.9294L3.02356 22.8956ZM1.51832 18.9704C1.19538 17.4448 1.0325 15.8403 1.0325 14.155H-0.9675C-0.9675 15.9697 -0.792049 17.7135 -0.438322 19.3846L1.51832 18.9704ZM1.0325 14.155C1.0325 12.4697 1.19538 10.8652 1.51832 9.33959L-0.438322 8.92541C-0.792049 10.5965 -0.9675 12.3403 -0.9675 14.155H1.0325ZM1.51863 9.33815C1.8371 7.82263 2.34288 6.4999 3.0257 5.35832L1.3093 4.33168C0.498785 5.68676 -0.080437 7.22237 -0.438625 8.92685L1.51863 9.33815ZM3.02779 5.3548C3.69395 4.23066 4.55221 3.36091 5.60572 2.72676L4.57428 1.01324C3.22446 1.82576 2.13438 2.93934 1.30721 4.3352L3.02779 5.3548ZM5.61179 2.72308C6.62434 2.10375 7.89842 1.7675 9.4825 1.7675V-0.232501C7.61325 -0.232501 5.95899 0.166251 4.56822 1.01692L5.61179 2.72308ZM9.4825 1.7675C11.0535 1.7675 12.3222 2.10313 13.3357 2.72308L14.3793 1.01692C12.9895 0.166866 11.3415 -0.232501 9.4825 -0.232501V1.7675ZM13.3418 2.72676C14.3953 3.36091 15.2536 4.23066 15.9197 5.3548L17.6403 4.3352C16.8131 2.93934 15.723 1.82576 14.3732 1.01324L13.3418 2.72676ZM15.9218 5.35832C16.6046 6.4999 17.1104 7.82263 17.4289 9.33815L19.3861 8.92685C19.0279 7.22237 18.4487 5.68676 17.6382 4.33168L15.9218 5.35832ZM17.4306 9.34641C17.7642 10.8698 17.9325 12.472 17.9325 14.155H19.9325C19.9325 12.338 19.7508 10.5919 19.3844 8.91859L17.4306 9.34641ZM17.9325 14.155C17.9325 15.838 17.7642 17.4402 17.4306 18.9636L19.3844 19.3914C19.7508 17.7181 19.9325 15.972 19.9325 14.155H17.9325ZM17.4295 18.969C17.1115 20.46 16.6065 21.7652 15.9239 22.8956L17.6361 23.9294C18.4469 22.5865 19.0268 21.0683 19.3855 19.386L17.4295 18.969ZM15.9239 22.8956C15.2588 23.9973 14.3998 24.8589 13.3418 25.4957L14.3732 27.2093C15.7186 26.3994 16.8079 25.301 17.6361 23.9294L15.9239 22.8956ZM13.3418 25.4957C12.3271 26.1065 11.0562 26.4375 9.4825 26.4375V28.4375C11.3388 28.4375 12.9845 28.0452 14.3732 27.2093L13.3418 25.4957ZM9.4825 23.695C10.465 23.695 11.3065 23.2886 11.9521 22.5462L10.4429 21.2338C10.1551 21.5648 9.85333 21.695 9.4825 21.695V23.695ZM11.9521 22.5462C12.5922 21.8101 12.9904 20.7087 13.2463 19.4051L11.2837 19.0199C11.0496 20.213 10.7362 20.8966 10.4429 21.2338L11.9521 22.5462ZM13.2463 19.4051C13.5092 18.0653 13.6325 16.3063 13.6325 14.155H11.6325C11.6325 16.2504 11.5108 17.863 11.2837 19.0199L13.2463 19.4051ZM13.6325 14.155C13.6325 11.9925 13.5093 10.2274 13.2463 8.88741L11.2837 9.27259C11.5107 10.4292 11.6325 12.0475 11.6325 14.155H13.6325ZM13.2463 8.88741C12.9908 7.58555 12.592 6.48359 11.9449 5.75564L10.4501 7.08436C10.7364 7.40641 11.0492 8.07778 11.2837 9.27259L13.2463 8.88741ZM11.9521 5.76382C11.3065 5.02143 10.465 4.615 9.4825 4.615V6.615C9.85333 6.615 10.1551 6.74524 10.4429 7.07618L11.9521 5.76382ZM9.4825 4.615C8.50732 4.615 7.67176 5.02449 7.02099 5.75463L8.51401 7.08537C8.81991 6.74217 9.12768 6.615 9.4825 6.615V4.615ZM7.02831 5.74651C6.36361 6.47606 5.95739 7.58214 5.70122 8.88741L7.66378 9.27259C7.89761 8.08119 8.21473 7.41394 8.5067 7.09349L7.02831 5.74651ZM5.70122 8.88741C5.43822 10.2274 5.315 11.9925 5.315 14.155H7.315C7.315 12.0475 7.43678 10.4292 7.66378 9.27259L5.70122 8.88741ZM5.315 14.155C5.315 16.3175 5.43822 18.0826 5.70122 19.4226L7.66378 19.0374C7.43678 17.8808 7.315 16.2625 7.315 14.155H5.315ZM5.70157 19.4243C5.95854 20.7214 6.36478 21.8191 7.02099 22.5554L8.51401 21.2246C8.21355 20.8875 7.89646 20.2119 7.66344 19.0357L5.70157 19.4243ZM7.02099 22.5554C7.67176 23.2855 8.50732 23.695 9.4825 23.695V21.695C9.12768 21.695 8.81991 21.5678 8.51401 21.2246L7.02099 22.5554ZM31.8281 27H30.8281V28H31.8281V27ZM31.8281 22.3275H32.8281V21.3275H31.8281V22.3275ZM20.7156 22.3275H19.7156V23.3275H20.7156V22.3275ZM20.7156 18.11L19.8369 17.6325L19.7156 17.8559V18.11H20.7156ZM29.9206 1.17V0.169999H29.3259L29.0419 0.692546L29.9206 1.17ZM37.9181 1.17H38.9181V0.169999H37.9181V1.17ZM37.9181 17.76H36.9181V18.76H37.9181V17.76ZM40.8756 17.76H41.8756V16.76H40.8756V17.76ZM40.8756 22.3275V23.3275H41.8756V22.3275H40.8756ZM37.9181 22.3275V21.3275H36.9181V22.3275H37.9181ZM37.9181 27V28H38.9181V27H37.9181ZM25.3006 20.315L24.4572 20.8522L25.3873 22.3124L26.1874 20.7772L25.3006 20.315ZM23.6731 17.76V16.76H21.8505L22.8297 18.2972L23.6731 17.76ZM31.8281 17.76V18.76H32.8281V17.76H31.8281ZM31.8281 5.09L32.1028 4.12847L30.8281 3.76427V5.09H31.8281ZM33.0531 5.44L33.9399 5.90217L34.5064 4.81521L33.3278 4.47847L33.0531 5.44ZM32.8281 27V22.3275H30.8281V27H32.8281ZM31.8281 21.3275H20.7156V23.3275H31.8281V21.3275ZM21.7156 22.3275V18.11H19.7156V22.3275H21.7156ZM21.5942 18.5875L30.7992 1.64745L29.0419 0.692546L19.8369 17.6325L21.5942 18.5875ZM29.9206 2.17H37.9181V0.169999H29.9206V2.17ZM36.9181 1.17V17.76H38.9181V1.17H36.9181ZM37.9181 18.76H40.8756V16.76H37.9181V18.76ZM39.8756 17.76V22.3275H41.8756V17.76H39.8756ZM40.8756 21.3275H37.9181V23.3275H40.8756V21.3275ZM36.9181 22.3275V27H38.9181V22.3275H36.9181ZM37.9181 26H31.8281V28H37.9181V26ZM26.144 19.7778L24.5165 17.2228L22.8297 18.2972L24.4572 20.8522L26.144 19.7778ZM23.6731 18.76H31.8281V16.76H23.6731V18.76ZM32.8281 17.76V5.09H30.8281V17.76H32.8281ZM31.5534 6.05152L32.7784 6.40152L33.3278 4.47847L32.1028 4.12847L31.5534 6.05152ZM32.1663 4.97782L24.4138 19.8528L26.1874 20.7772L33.9399 5.90217L32.1663 4.97782Z" fill="#E9E9E9"/>
</svg>
