<svg width="31" height="31" viewBox="0 0 31 31" fill="none" xmlns="http://www.w3.org/2000/svg">
<g filter="url(#filter0_d_151_85)">
<path d="M13.1461 10.4296C13.3694 10.2679 13.4772 10.0009 13.4772 9.63382C13.4849 9.45926 13.449 9.28728 13.372 9.13069C13.3027 9.00491 13.2 8.89966 13.0742 8.82522C12.9438 8.74613 12.799 8.69378 12.6481 8.67121C12.4838 8.6404 12.317 8.625 12.1527 8.62757H10.3481V10.6734H12.3016C12.6378 10.676 12.9228 10.5939 13.1461 10.4296ZM13.449 12.2778C13.1974 12.0853 12.8612 11.9903 12.4427 11.9903H10.343V14.4032H12.4017C12.5942 14.4032 12.7713 14.3853 12.9433 14.3493C13.106 14.3175 13.2611 14.2548 13.4002 14.1645C13.5311 14.0798 13.6364 13.9643 13.716 13.8154C13.793 13.6665 13.8315 13.4766 13.8315 13.2481C13.8315 12.7937 13.7031 12.4729 13.449 12.2778ZM15.5 0C9.14933 0 4 5.14933 4 11.5C4 17.8507 9.14933 23 15.5 23C21.8507 23 27 17.8507 27 11.5C27 5.14933 21.8507 0 15.5 0ZM17.7204 7.36462H21.2731V8.22969H17.7204V7.36462ZM15.5 14.4982C15.3338 14.8136 15.0965 15.0861 14.8069 15.294C14.504 15.5045 14.1677 15.6585 13.8109 15.7483C13.4376 15.8484 13.0525 15.8976 12.6661 15.8946H8.41518V7.13873H12.548C12.9664 7.13873 13.3463 7.17723 13.6929 7.24911C14.0368 7.32098 14.3295 7.4442 14.5759 7.61105C14.8198 7.7779 15.0123 8.00123 15.1483 8.27846C15.2818 8.55313 15.3511 8.8971 15.3511 9.30525C15.3511 9.74676 15.251 10.1113 15.0508 10.4065C14.848 10.7017 14.5554 10.9404 14.1575 11.1278C14.6991 11.2818 15.097 11.5565 15.3588 11.9415C15.6258 12.3317 15.7567 12.7989 15.7567 13.3482C15.7567 13.7949 15.672 14.1773 15.5 14.4982ZM22.6567 13.1429H18.0772C18.0772 13.6408 18.2492 14.1183 18.5085 14.375C18.7703 14.6291 19.1451 14.7575 19.6354 14.7575C19.9896 14.7575 20.29 14.6676 20.5467 14.4905C20.8008 14.3134 20.9548 14.126 21.0113 13.9309H22.5463C22.2999 14.6933 21.9251 15.2375 21.4169 15.5661C20.9137 15.8946 20.2977 16.0589 19.5815 16.0589C19.0809 16.0589 18.6317 15.9768 18.2287 15.8202C17.8411 15.6687 17.492 15.4377 17.2045 15.14C16.921 14.8342 16.7019 14.4745 16.5602 14.0824C16.4036 13.6485 16.3266 13.1916 16.3317 12.7321C16.3317 12.2573 16.4113 11.8157 16.5653 11.405C16.8605 10.6067 17.474 9.96752 18.2569 9.63638C18.6753 9.46183 19.1246 9.37455 19.5789 9.37969C20.118 9.37969 20.5852 9.48237 20.9907 9.69286C21.3812 9.89386 21.7202 10.1819 21.9816 10.5348C22.2408 10.8865 22.4231 11.2869 22.5386 11.7387C22.649 12.1828 22.6875 12.65 22.6567 13.1429ZM19.525 10.6888C19.2478 10.6888 19.0142 10.7376 18.8345 10.8326C18.6548 10.9276 18.5059 11.0456 18.393 11.1817C18.2854 11.3131 18.2059 11.4651 18.1594 11.6283C18.1183 11.7644 18.0901 11.903 18.0798 12.0442H20.9163C20.8752 11.6001 20.7212 11.2715 20.5159 11.0405C20.3002 10.8121 19.9537 10.6888 19.525 10.6888Z" fill="#E9E9E9"/>
</g>
<defs>
<filter id="filter0_d_151_85" x="0" y="0" width="31" height="31" filterUnits="userSpaceOnUse" color-interpolation-filters="sRGB">
<feFlood flood-opacity="0" result="BackgroundImageFix"/>
<feColorMatrix in="SourceAlpha" type="matrix" values="0 0 0 0 0 0 0 0 0 0 0 0 0 0 0 0 0 0 127 0" result="hardAlpha"/>
<feOffset dy="4"/>
<feGaussianBlur stdDeviation="2"/>
<feComposite in2="hardAlpha" operator="out"/>
<feColorMatrix type="matrix" values="0 0 0 0 0 0 0 0 0 0 0 0 0 0 0 0 0 0 0.25 0"/>
<feBlend mode="normal" in2="BackgroundImageFix" result="effect1_dropShadow_151_85"/>
<feBlend mode="normal" in="SourceGraphic" in2="effect1_dropShadow_151_85" result="shape"/>
</filter>
</defs>
</svg>
