<svg width="55" height="17" viewBox="0 0 55 17" fill="none" xmlns="http://www.w3.org/2000/svg">
<path d="M22.8262 17C21.9639 17 21.2406 16.728 20.6562 16.184C20.0719 15.64 19.7807 14.9675 19.7827 14.1667V13.6159C19.7827 12.3553 20.8047 11.3333 22.0653 11.3333H23.6396C24.0308 11.3333 24.3479 11.6505 24.3479 12.0417C24.3479 12.4329 24.6651 12.75 25.0563 12.75H29.0182C29.8006 12.75 30.4349 12.1157 30.4349 11.3333C30.4349 10.5509 29.8006 9.91667 29.0182 9.91667H22.8262C21.9639 9.91667 21.2406 9.64466 20.6562 9.10067C20.0719 8.55667 19.7807 7.88422 19.7827 7.08333V2.83334C19.7827 2.03056 20.0749 1.35717 20.6593 0.813175C21.2436 0.269175 21.9659 -0.00187908 22.8262 9.80394e-06H31.9566C32.819 9.80394e-06 33.5423 0.27201 34.1266 0.816009C34.711 1.36001 35.0021 2.03245 35.0001 2.83334V3.38406C35.0001 4.64471 33.9782 5.66667 32.7175 5.66667H31.1432C30.752 5.66667 30.4349 5.34954 30.4349 4.95834C30.4349 4.56714 30.1178 4.25 29.7266 4.25H25.7646C24.9822 4.25 24.3479 4.88427 24.3479 5.66667C24.3479 6.44907 24.9822 7.08333 25.7646 7.08333H31.9566C32.819 7.08333 33.5423 7.35533 34.1266 7.89933C34.711 8.44333 35.0021 9.11578 35.0001 9.91667V14.1667C35.0001 14.9694 34.7079 15.6428 34.1236 16.1868C33.5392 16.7308 32.8169 17.0019 31.9566 17H22.8262ZM42.6088 17C41.7465 17 41.0232 16.728 40.4388 16.184C39.8545 15.64 39.5633 14.9675 39.5653 14.1667V13.6159C39.5653 12.3553 40.5873 11.3333 41.8479 11.3333H43.4222C43.8134 11.3333 44.1305 11.6505 44.1305 12.0417C44.1305 12.4329 44.4477 12.75 44.8389 12.75H48.8008C49.5832 12.75 50.2175 12.1157 50.2175 11.3333C50.2175 10.5509 49.5832 9.91667 48.8008 9.91667H42.6088C41.7465 9.91667 41.0232 9.64466 40.4388 9.10067C39.8545 8.55667 39.5633 7.88422 39.5653 7.08333V2.83334C39.5653 2.03056 39.8575 1.35717 40.4419 0.813175C41.0262 0.269175 41.7485 -0.00187908 42.6088 9.80394e-06H51.7392C52.6016 9.80394e-06 53.3249 0.27201 53.9092 0.816009C54.4936 1.36001 54.7847 2.03245 54.7827 2.83334V3.38406C54.7827 4.64471 53.7608 5.66667 52.5001 5.66667H50.9258C50.5346 5.66667 50.2175 5.34954 50.2175 4.95834C50.2175 4.56714 49.9004 4.25 49.5092 4.25H45.5472C44.7648 4.25 44.1305 4.88427 44.1305 5.66667C44.1305 6.44907 44.7648 7.08333 45.5472 7.08333H51.7392C52.6016 7.08333 53.3249 7.35533 53.9092 7.89933C54.4936 8.44333 54.7847 9.11578 54.7827 9.91667V14.1667C54.7827 14.9694 54.4905 15.6428 53.9062 16.1868C53.3218 16.7308 52.5995 17.0019 51.7392 17H42.6088ZM3.04361 17C2.18129 17 1.45796 16.728 0.87361 16.184C0.289263 15.64 -0.00189638 14.9675 0.000132601 14.1667V2.83334C0.000132601 2.03056 0.292307 1.35717 0.876654 0.813175C1.461 0.269175 2.18332 -0.00187908 3.04361 9.80394e-06H12.174C13.0364 9.80394e-06 13.7597 0.27201 14.344 0.816009C14.9284 1.36001 15.2195 2.03245 15.2175 2.83334V3.38406C15.2175 4.64471 14.1956 5.66667 12.9349 5.66667H11.3606C10.9694 5.66667 10.6523 5.34954 10.6523 4.95834C10.6523 4.56714 10.3352 4.25 9.94397 4.25H7.60882C5.92796 4.25 4.56535 5.61262 4.56535 7.29348V9.70652C4.56535 11.3874 5.92796 12.75 7.60883 12.75H9.94397C10.3352 12.75 10.6523 12.4329 10.6523 12.0417C10.6523 11.6505 10.9694 11.3333 11.3606 11.3333H12.9349C14.1956 11.3333 15.2175 12.3553 15.2175 13.6159V14.1667C15.2175 14.9694 14.9253 15.6428 14.341 16.1868C13.7566 16.7308 13.0343 17.0019 12.174 17H3.04361Z" fill="#E9E9E9"/>
</svg>
