<svg width="21" height="259" viewBox="0 0 21 259" fill="none" xmlns="http://www.w3.org/2000/svg">
<line x1="10.487" y1="247.004" x2="10.487" y2="13.9958" stroke="#232323" stroke-width="5"/>
<path d="M11.0069 0.370005C10.9453 0.1517 10.7374 0 10.5 0C10.2626 0 10.0547 0.1517 9.99306 0.370005L9.86785 0.81288C8.68413 4.99995 5.24995 8.2706 0.853524 9.39795L0.388505 9.5172C0.159285 9.57595 0 9.7739 0 10C0 10.2261 0.159285 10.424 0.388505 10.4828L0.853524 10.602C5.24995 11.7294 8.68413 15 9.86785 19.1871L9.99306 19.63C10.0547 19.8483 10.2626 20 10.5 20C10.7374 20 10.9453 19.8483 11.0069 19.63L11.1322 19.1871C12.3159 15 15.7501 11.7294 20.1465 10.602L20.6115 10.4828C20.8407 10.424 21 10.2261 21 10C21 9.7739 20.8407 9.57595 20.6115 9.5172L20.1465 9.39795C15.7501 8.2706 12.3159 4.99995 11.1322 0.81288L11.0069 0.370005Z" fill="#232323"/>
<path d="M11.0069 238.389C10.9453 238.159 10.7374 238 10.5 238C10.2626 238 10.0547 238.159 9.99306 238.389L9.86785 238.854C8.68413 243.25 5.24995 246.684 0.853524 247.868L0.388505 247.993C0.159285 248.055 0 248.263 0 248.5C0 248.737 0.159285 248.945 0.388505 249.007L0.853524 249.132C5.24995 250.316 8.68413 253.75 9.86785 258.146L9.99306 258.611C10.0547 258.841 10.2626 259 10.5 259C10.7374 259 10.9453 258.841 11.0069 258.611L11.1322 258.146C12.3159 253.75 15.7501 250.316 20.1465 249.132L20.6115 249.007C20.8407 248.945 21 248.737 21 248.5C21 248.263 20.8407 248.055 20.6115 247.993L20.1465 247.868C15.7501 246.684 12.3159 243.25 11.1322 238.854L11.0069 238.389Z" fill="#232323"/>
</svg>
