<svg width="39" height="39" viewBox="0 0 39 39" fill="none" xmlns="http://www.w3.org/2000/svg">
<path d="M5.27222 9.87523C6.29175 9.16265 7.82862 9.29931 8.74402 10.0553L7.69413 8.52924C6.84923 7.32425 7.15183 6.02056 8.35791 5.17458C9.56398 4.33184 12.9816 6.59757 12.9816 6.59757C12.1291 5.38065 12.2885 3.83835 13.5054 2.98477C14.7223 2.13445 16.4013 2.42837 17.2538 3.64746L28.5553 19.6128L27.115 33.577L15.0943 29.193L4.60953 13.6475C3.74945 12.423 4.04663 10.7342 5.27222 9.87523Z" fill="#EF9645"/>
<path d="M2.92296 18.7571C2.92296 18.7571 1.6952 16.9675 3.48587 15.7408C5.27437 14.5141 6.50105 16.3026 6.50105 16.3026L12.1963 24.6085C12.3926 24.2809 12.6073 23.9577 12.847 23.6388L4.94248 12.1128C4.94248 12.1128 3.7158 10.3243 5.50539 9.09762C7.29389 7.87094 8.52058 9.65944 8.52058 9.65944L15.9555 20.5022C16.2321 20.2766 16.5152 20.0499 16.8069 19.8276L8.1876 7.25597C8.1876 7.25597 6.96092 5.46747 8.75051 4.24079C10.539 3.0141 11.7657 4.80261 11.7657 4.80261L20.385 17.372C20.7017 17.1779 21.0152 17.0098 21.3297 16.8319L13.2733 5.08352C13.2733 5.08352 12.0466 3.29502 13.8351 2.06833C15.6236 0.841654 16.8503 2.63016 16.8503 2.63016L25.3687 15.0531L26.6637 16.9425C21.2971 20.6236 20.7863 27.5488 23.8525 32.0206C24.4653 32.9154 25.3601 32.3026 25.3601 32.3026C21.68 26.9349 22.8037 20.9035 28.1713 17.2234L26.5889 9.30369C26.5889 9.30369 25.9978 7.21692 28.0835 6.62473C30.1702 6.03363 30.7624 8.1204 30.7624 8.1204L32.59 13.5477C33.3145 15.6996 34.0857 17.8438 35.1063 19.872C37.988 25.5987 36.2668 32.7158 30.8329 36.4436C24.9056 40.5076 16.8026 38.9967 12.7375 33.0705L2.92296 18.7571Z" fill="#FFDC5D"/>
<path d="M13.0152 34.7072C8.6768 34.7072 4.29285 30.3232 4.29285 25.9848C4.29285 25.3851 3.85359 24.9002 3.25381 24.9002C2.65403 24.9002 2.12366 25.3851 2.12366 25.9848C2.12366 32.4924 6.5076 36.8764 13.0152 36.8764C13.615 36.8764 14.0998 36.346 14.0998 35.7462C14.0998 35.1464 13.615 34.7072 13.0152 34.7072Z" fill="#5DADEC"/>
<path d="M7.59219 36.8308C4.3384 36.8308 2.1692 34.6617 2.1692 31.4079C2.1692 30.8081 1.68438 30.3233 1.0846 30.3233C0.484816 30.3233 0 30.8081 0 31.4079C0 35.7463 3.2538 39 7.59219 39C8.19197 39 8.67679 38.5152 8.67679 37.9154C8.67679 37.3157 8.19197 36.8308 7.59219 36.8308ZM26.0304 2.12369C25.4317 2.12369 24.9458 2.60959 24.9458 3.20829C24.9458 3.80699 25.4317 4.29289 26.0304 4.29289C30.3688 4.29289 34.7072 8.18551 34.7072 12.9697C34.7072 13.5684 35.1931 14.0543 35.7918 14.0543C36.3905 14.0543 36.8764 13.5684 36.8764 12.9697C36.8764 6.9892 32.538 2.12369 26.0304 2.12369Z" fill="#5DADEC"/>
<path d="M31.4534 0C30.8547 0 30.3688 0.440347 30.3688 1.03905C30.3688 1.63774 30.8547 2.1692 31.4534 2.1692C34.7072 2.1692 36.8308 4.58243 36.8308 7.54664C36.8308 8.14534 37.3612 8.63124 37.961 8.63124C38.5607 8.63124 39 8.14534 39 7.54664C39 3.38503 35.7918 0 31.4534 0Z" fill="#5DADEC"/>
</svg>
