<svg width="31" height="30" viewBox="0 0 31 30" fill="none" xmlns="http://www.w3.org/2000/svg">
<g filter="url(#filter0_d_151_86)">
<path d="M15.5 0C13.9898 0 12.4944 0.291587 11.0991 0.858113C9.7039 1.42464 8.43615 2.25501 7.36827 3.30181C5.2116 5.41593 4 8.28329 4 11.2731C4 16.2558 7.3005 20.4832 11.866 21.9825C12.441 22.0727 12.625 21.7233 12.625 21.4189V19.5137C9.4395 20.1901 8.761 18.0031 8.761 18.0031C8.232 16.6955 7.4845 16.346 7.4845 16.346C6.438 15.6471 7.565 15.6696 7.565 15.6696C8.715 15.7485 9.3245 16.8307 9.3245 16.8307C10.325 18.5442 12.0155 18.037 12.671 17.7664C12.7745 17.0336 13.0735 16.5376 13.3955 16.2558C10.8425 15.974 8.163 15.0045 8.163 10.7094C8.163 9.45813 8.6 8.45482 9.3475 7.65443C9.2325 7.37261 8.83 6.2002 9.4625 4.67834C9.4625 4.67834 10.4285 4.37396 12.625 5.82819C13.5335 5.58018 14.5225 5.45618 15.5 5.45618C16.4775 5.45618 17.4665 5.58018 18.375 5.82819C20.5715 4.37396 21.5375 4.67834 21.5375 4.67834C22.17 6.2002 21.7675 7.37261 21.6525 7.65443C22.4 8.45482 22.837 9.45813 22.837 10.7094C22.837 15.0158 20.146 15.9627 17.5815 16.2445C17.9955 16.594 18.375 17.2817 18.375 18.3301V21.4189C18.375 21.7233 18.559 22.084 19.1455 21.9825C23.711 20.4719 27 16.2558 27 11.2731C27 9.79269 26.7025 8.32678 26.1246 6.95907C25.5467 5.59135 24.6996 4.34862 23.6317 3.30181C22.5639 2.25501 21.2961 1.42464 19.9009 0.858113C18.5056 0.291587 17.0102 0 15.5 0Z" fill="#E9E9E9"/>
</g>
<defs>
<filter id="filter0_d_151_86" x="0" y="0" width="31" height="30" filterUnits="userSpaceOnUse" color-interpolation-filters="sRGB">
<feFlood flood-opacity="0" result="BackgroundImageFix"/>
<feColorMatrix in="SourceAlpha" type="matrix" values="0 0 0 0 0 0 0 0 0 0 0 0 0 0 0 0 0 0 127 0" result="hardAlpha"/>
<feOffset dy="4"/>
<feGaussianBlur stdDeviation="2"/>
<feComposite in2="hardAlpha" operator="out"/>
<feColorMatrix type="matrix" values="0 0 0 0 0 0 0 0 0 0 0 0 0 0 0 0 0 0 0.25 0"/>
<feBlend mode="normal" in2="BackgroundImageFix" result="effect1_dropShadow_151_86"/>
<feBlend mode="normal" in="SourceGraphic" in2="effect1_dropShadow_151_86" result="shape"/>
</filter>
</defs>
</svg>
