<svg width="41" height="20" viewBox="0 0 41 20" fill="none" xmlns="http://www.w3.org/2000/svg">
<path d="M5.48855 20C3.96399 20 2.6675 19.5133 1.59909 18.54C0.530677 17.5667 -0.00230889 16.3867 0.000130405 15V14.4109C0.000130405 12.8953 1.22876 11.6667 2.74434 11.6667H3.82189C4.74236 11.6667 5.48855 12.4129 5.48855 13.3333C5.48855 14.2538 6.23474 15 7.15522 15H8.23276C9.74835 15 10.977 13.7714 10.977 12.2558V2.74422C10.977 1.22864 12.2056 1.1534e-05 13.7212 1.1534e-05C15.2368 1.1534e-05 16.4654 1.22864 16.4654 2.74422V15C16.4654 16.3889 15.9312 17.57 14.8628 18.5433C13.7944 19.5167 12.4991 20.0022 10.977 20H5.48855ZM25.6128 20C24.5761 20 23.7065 19.68 23.0039 19.04C22.3014 18.4 21.9514 17.6089 21.9538 16.6667V16.0775C21.9538 14.562 23.1824 13.3333 24.698 13.3333H26.6089C27.0691 13.3333 27.4422 13.7064 27.4422 14.1667C27.4422 14.6269 27.8153 15 28.2756 15H33.0935C34.0139 15 34.7601 14.2538 34.7601 13.3333C34.7601 12.4129 34.0139 11.6667 33.0935 11.6667H25.6128C24.5761 11.6667 23.7065 11.3467 23.0039 10.7067C22.3014 10.0667 21.9514 9.27556 21.9538 8.33334V3.33334C21.9538 2.3889 22.3051 1.59668 23.0076 0.956676C23.7101 0.316677 24.5785 -0.00221069 25.6128 1.1534e-05H36.5896C37.6263 1.1534e-05 38.4959 0.320012 39.1984 0.960011C39.901 1.60001 40.251 2.39112 40.2486 3.33334V3.92246C40.2486 5.43805 39.0199 6.66667 37.5043 6.66667H35.5935C35.1332 6.66667 34.7601 6.29358 34.7601 5.83334C34.7601 5.3731 34.387 5.00001 33.9268 5.00001H29.1089C28.1884 5.00001 27.4422 5.7462 27.4422 6.66667C27.4422 7.58714 28.1884 8.33334 29.1089 8.33334H36.5896C37.6263 8.33334 38.4959 8.65334 39.1984 9.29333C39.901 9.93333 40.251 10.7244 40.2486 11.6667V16.6667C40.2486 17.6111 39.8973 18.4033 39.1948 19.0433C38.4923 19.6833 37.6239 20.0022 36.5896 20H25.6128Z" fill="#E9E9E9"/>
</svg>
