<svg width="38" height="14" viewBox="0 0 38 14" fill="none" xmlns="http://www.w3.org/2000/svg">
<path d="M15.9924 12.7562C15.9924 12.9334 15.9514 13.098 15.8696 13.2499C15.7952 13.4018 15.691 13.5348 15.5571 13.6487C15.4306 13.7563 15.2781 13.8418 15.0996 13.9051C14.921 13.9684 14.7313 14 14.5304 14C14.3518 14 14.1696 13.9715 13.9836 13.9145C13.805 13.8576 13.645 13.7658 13.5037 13.6392L2.90162 4.22029V13.8101H0V1.2484C0 0.995202 0.0818404 0.767326 0.245521 0.564768C0.416642 0.355882 0.632403 0.200799 0.892805 0.0995202C1.16809 0.00457161 1.45081 -0.0175831 1.74097 0.0330562C2.03113 0.0773655 2.28037 0.191304 2.48869 0.374871L13.0907 9.78428V0.194469H15.9924V12.7562Z" fill="white"/>
<path d="M38 13.8101H35.0761V5.70149L29.9313 13.4018C29.8048 13.5981 29.6262 13.7468 29.3956 13.8481C29.1724 13.9494 28.9306 14 28.6702 14C28.4172 14 28.1791 13.9494 27.9559 13.8481C27.7402 13.7468 27.5691 13.5981 27.4426 13.4018L22.2755 5.70149V13.8101H19.3739V1.2484C19.3739 0.963553 19.4706 0.710356 19.664 0.48881C19.8649 0.267263 20.1253 0.11851 20.4452 0.0425511C20.6015 0.0109015 20.7577 0.00140665 20.9139 0.0140665C21.0702 0.0203964 21.219 0.048881 21.3604 0.0995202C21.5092 0.14383 21.6431 0.210294 21.7621 0.298912C21.8812 0.381201 21.9816 0.48248 22.0634 0.602748L28.6702 10.373L35.2769 0.602748C35.4481 0.362211 35.6824 0.191304 35.98 0.0900254C36.2851 -0.0112532 36.6013 -0.0270779 36.9286 0.0425511C37.2411 0.11851 37.4978 0.267263 37.6987 0.48881C37.8996 0.710356 38 0.963553 38 1.2484V13.8101Z" fill="white"/>
</svg>
