<svg width="37" height="33" viewBox="0 0 37 33" fill="none" xmlns="http://www.w3.org/2000/svg">
<g clip-path="url(#clip0_162_280)">
<path d="M27.3815 30.9432C27.2443 31.0082 27.2559 31.0288 27.3873 30.969C27.4278 30.9542 27.4649 30.9329 27.4968 30.9061C27.4968 30.8844 27.4968 30.8844 27.3815 30.9432ZM27.6582 30.8091C27.5925 30.8576 27.5925 30.8576 27.6709 30.8256C27.6999 30.8135 27.7264 30.7971 27.7493 30.7772C27.7493 30.7493 27.7309 30.7555 27.6582 30.8091ZM27.8381 30.7122C27.7724 30.7607 27.7724 30.7607 27.8508 30.7287C27.8799 30.7163 27.9064 30.6996 27.9292 30.6792C27.9292 30.6534 27.9107 30.6586 27.8381 30.7122ZM28.0203 30.6163C27.9546 30.6648 27.9546 30.6648 28.0307 30.6318C28.0733 30.6111 28.1091 30.5895 28.1091 30.5833C28.1091 30.5575 28.0906 30.5627 28.0203 30.6163ZM28.2659 30.4709C28.1402 30.5462 28.0964 30.5946 28.2117 30.541C28.2889 30.4987 28.4203 30.4059 28.3973 30.4059C28.3477 30.4224 28.3062 30.4503 28.2647 30.4709H28.2659ZM17.2402 0.0118827C17.156 0.0170389 16.9035 0.0376639 16.6822 0.0541639C11.4385 0.479039 6.53274 3.00354 3.42323 6.89238C1.70483 9.02526 0.587848 11.4978 0.1673 14.0998C0.0185693 15.0073 0.00012207 15.2754 0.00012207 16.5057C0.00012207 17.7349 0.0185693 17.9989 0.1673 18.9064C1.17152 25.1053 6.10154 30.309 12.784 32.2374C13.9866 32.5808 15.2467 32.818 16.6822 32.9634C17.2402 33.017 19.6533 33.017 20.2113 32.9634C22.6925 32.7159 24.7874 32.1683 26.8604 31.2227C27.1786 31.0783 27.2386 31.0401 27.1959 31.0082C26.1847 29.8125 25.1819 28.6111 24.1879 27.4039L21.2398 23.843L17.5469 18.9498C16.3185 17.3114 15.0775 15.6806 13.824 14.0575C13.8113 14.0575 13.7952 16.2324 13.7883 18.8848C13.7756 23.5306 13.7756 23.7193 13.7099 23.8265C13.6468 23.9561 13.5339 24.0611 13.3916 24.1225C13.2775 24.171 13.1749 24.1813 12.6295 24.1813H12.0058L11.8432 24.0905C11.7414 24.0321 11.6587 23.9506 11.6034 23.8544L11.525 23.709L11.5308 17.242L11.5435 10.775L11.6576 10.6461C11.7305 10.5669 11.8202 10.5013 11.9216 10.4533C12.0727 10.3883 12.1326 10.378 12.7564 10.378C13.4885 10.378 13.6095 10.4038 13.8021 10.5925C15.2981 12.5827 16.7812 14.5806 18.2513 16.5861C20.6483 19.8366 23.9204 24.272 25.5287 26.448L28.4538 30.4069L28.5979 30.3214C30.0036 29.4858 31.2775 28.4851 32.3853 27.3462C34.7092 24.9672 36.2171 22.0395 36.7285 18.9137C36.8772 18.0062 36.8957 17.737 36.8957 16.5078C36.8957 15.2775 36.8772 15.0145 36.7285 14.107C35.7243 7.90816 30.7943 2.70448 24.1118 0.775008C22.8629 0.421207 21.5774 0.180407 20.2748 0.0562264C19.9254 0.0242577 17.5411 -0.0138986 17.2413 0.0139452L17.2402 0.0118827ZM24.7886 9.99129C24.8743 10.029 24.9508 10.0816 25.0136 10.146C25.0764 10.2105 25.1241 10.2855 25.154 10.3667C25.1852 10.4533 25.1909 12.2466 25.1852 16.286L25.1725 22.0858L24.0322 20.5183L22.885 18.9498V14.7392C22.885 12.0094 22.8977 10.4791 22.9139 10.4038C22.9703 10.2312 23.0998 10.085 23.2747 9.99645C23.4177 9.93148 23.473 9.92632 24.0438 9.92632C24.5776 9.92632 24.6686 9.93148 24.7886 9.99129Z" fill="#E9E9E9"/>
</g>
<defs>
<clipPath id="clip0_162_280">
<rect x="0.00012207" width="36.8944" height="33" rx="10" fill="white"/>
</clipPath>
</defs>
</svg>
