<svg width="45" height="37" viewBox="0 0 45 37" fill="none" xmlns="http://www.w3.org/2000/svg">
<path d="M43.7826 18.3366C43.7826 22.8657 34.2054 26.5366 22.3913 26.5366C10.5772 26.5366 1 22.8657 1 18.3366C1 13.8075 10.5772 10.1366 22.3913 10.1366C34.2054 10.1366 43.7826 13.8075 43.7826 18.3366Z" stroke="#232323" stroke-width="2"/>
<path d="M12.2029 35.1602C16.6554 37.3196 24.8238 31.5331 30.4528 22.2425C36.0787 12.9492 37.0321 3.66952 32.5797 1.51292C28.1272 -0.646417 19.9588 5.14005 14.3298 14.4307C8.70391 23.724 7.75047 33.0036 12.2029 35.1602Z" stroke="#232323" stroke-width="2"/>
<path d="M32.5797 35.1602C28.1272 37.3196 19.9588 31.5331 14.3298 22.2425C8.70391 12.9492 7.75047 3.66952 12.2029 1.51292C16.6554 -0.646417 24.8238 5.14005 30.4528 14.4307C36.0787 23.724 37.0321 33.0036 32.5797 35.1602Z" stroke="#232323" stroke-width="2"/>
<path d="M19.3354 18.3366C19.3354 19.0615 19.6574 19.7568 20.2305 20.2694C20.8036 20.782 21.5808 21.0699 22.3913 21.0699C23.2018 21.0699 23.9791 20.782 24.5522 20.2694C25.1253 19.7568 25.4472 19.0615 25.4472 18.3366C25.4472 17.6117 25.1253 16.9164 24.5522 16.4038C23.9791 15.8912 23.2018 15.6033 22.3913 15.6033C21.5808 15.6033 20.8036 15.8912 20.2305 16.4038C19.6574 16.9164 19.3354 17.6117 19.3354 18.3366Z" stroke="#232323" stroke-width="2"/>
</svg>
