<svg width="45" height="37" viewBox="0 0 45 37" fill="none" xmlns="http://www.w3.org/2000/svg">
<path d="M43.7826 18.2756C43.7826 22.8048 34.2054 26.4756 22.3913 26.4756C10.5772 26.4756 1 22.8048 1 18.2756C1 13.7465 10.5772 10.0756 22.3913 10.0756C34.2054 10.0756 43.7826 13.7465 43.7826 18.2756Z" stroke="#E9E9E9" stroke-width="2"/>
<path d="M12.2029 35.0993C16.6554 37.2586 24.8238 31.4721 30.4528 22.1815C36.0787 12.8882 37.0321 3.60854 32.5797 1.45194C28.1272 -0.707391 19.9588 5.07908 14.3298 14.3697C8.70391 23.663 7.75047 32.9427 12.2029 35.0993Z" stroke="#E9E9E9" stroke-width="2"/>
<path d="M32.5797 35.0993C28.1272 37.2586 19.9588 31.4721 14.3298 22.1815C8.70391 12.8882 7.75047 3.60854 12.2029 1.45194C16.6554 -0.707391 24.8238 5.07908 30.4528 14.3697C36.0787 23.663 37.0321 32.9427 32.5797 35.0993Z" stroke="#E9E9E9" stroke-width="2"/>
<path d="M19.3354 18.2756C19.3354 19.0005 19.6574 19.6958 20.2305 20.2084C20.8036 20.721 21.5809 21.0089 22.3913 21.0089C23.2018 21.0089 23.9791 20.721 24.5522 20.2084C25.1253 19.6958 25.4473 19.0005 25.4473 18.2756C25.4473 17.5507 25.1253 16.8554 24.5522 16.3428C23.9791 15.8302 23.2018 15.5423 22.3913 15.5423C21.5809 15.5423 20.8036 15.8302 20.2305 16.3428C19.6574 16.8554 19.3354 17.5507 19.3354 18.2756Z" stroke="#E9E9E9" stroke-width="2"/>
</svg>
