<svg width="40" height="36" viewBox="0 0 40 36" fill="none" xmlns="http://www.w3.org/2000/svg">
<mask id="mask0_162_285" style="mask-type:luminance" maskUnits="userSpaceOnUse" x="0" y="0" width="40" height="36">
<path d="M0.00012207 10C0.00012207 4.47716 4.47727 0 10.0001 0H29.8832C35.406 0 39.8832 4.47715 39.8832 10V25.6731C39.8832 31.196 35.406 35.6732 29.8832 35.6732H10.0001C4.47727 35.6732 0.00012207 31.196 0.00012207 25.6732V10Z" fill="white"/>
</mask>
<g mask="url(#mask0_162_285)">
<path d="M27.6348 24.62C27.6355 24.6194 27.6364 24.619 27.6374 24.6189C29.1073 24.4815 30.2233 23.3358 30.1735 21.9614C30.1486 21.3005 29.8389 20.6739 29.3093 20.2126C28.7796 19.7513 28.071 19.4912 27.3318 19.4866H27.2288C25.6551 19.5311 24.437 20.7232 24.4868 22.1442C24.5736 23.267 24.9263 24.5505 24.2529 25.4532C22.5588 27.7245 20.207 29.5011 16.9755 31.0343C14.2867 32.3185 11.4949 32.7763 8.70476 32.4552C6.4198 32.1803 4.64334 31.2632 3.52662 29.7515C1.90304 27.5071 1.75182 25.0768 3.12114 22.6481C3.87886 21.2797 4.98271 20.1934 5.88847 19.4801C6.28047 19.1714 6.45776 18.6529 6.31461 18.1749C6.09453 17.44 5.22847 17.0926 4.62525 17.5666C-1.34594 22.2583 -0.54484 28.157 1.54576 31.0357C3.22085 33.3277 6.62087 34.7487 10.3782 34.7487C11.4039 34.7549 12.4266 34.6471 13.4226 34.4277C19.9199 33.2832 24.842 29.7994 27.6339 24.6212C27.6341 24.6207 27.6344 24.6203 27.6348 24.62ZM36.568 18.9366C32.711 14.858 27.026 12.612 20.5301 12.612C20.0282 12.612 19.5834 12.3178 19.2118 11.9804C19.0564 11.8394 18.8822 11.7148 18.6921 11.6097C18.2532 11.3669 17.7475 11.2379 17.2314 11.2371H17.1284C15.5563 11.2832 14.3366 12.4753 14.3881 13.8963C14.4379 15.2712 15.7076 16.3696 17.2298 16.3696H17.3328C17.8689 16.3448 18.3863 16.1856 18.8259 15.9101C18.9945 15.8045 19.149 15.6834 19.2872 15.5493C19.6879 15.1608 20.1747 14.8119 20.7328 14.8119C24.5898 14.8119 28.2441 15.8197 31.5428 17.7906C34.0803 19.3037 35.9083 21.2732 36.922 23.6573C37.7861 25.5807 37.7363 27.4595 36.8223 29.0648C35.3998 31.4935 33.0151 32.8224 29.8677 32.8224C28.2012 32.8224 26.6019 32.4514 25.5211 32.0899C25.1294 31.9589 24.6972 32.0185 24.3686 32.2687C23.6406 32.823 23.7557 33.9739 24.6326 34.235C26.1559 34.6883 27.6813 34.9301 29.1581 34.9301C34.0305 34.9301 37.6333 32.5013 39.0042 30.0726C40.4749 27.4149 40.3736 22.8324 36.568 18.9366ZM10.7853 25.3979C10.8352 26.7728 12.1048 27.8727 13.627 27.8727H13.7284C15.3021 27.8281 16.5202 26.6361 16.4703 25.2151C16.4455 24.5542 16.1358 23.9276 15.6061 23.4663C15.0765 23.005 14.3679 22.7449 13.6287 22.7402H13.5256C13.3126 22.7277 13.0877 22.6628 12.9728 22.4831C11.0351 19.4508 10.2368 16.1609 10.5311 12.612C10.7338 9.86224 11.7492 7.47957 13.5256 5.50863C14.998 3.81415 17.8396 2.98921 19.769 2.94313C24.5746 2.8608 26.9094 7.68027 27.4617 10.4407C27.5659 10.9617 27.8757 11.3883 28.3896 11.5233C29.1933 11.7345 30.0462 11.1168 29.8917 10.3003C28.7001 4.00068 24.048 0.743286 19.5646 0.743286C14.998 0.743286 10.7853 3.722 9.11024 8.12168C6.98214 13.4676 8.05831 18.6234 10.4186 22.8609C10.8285 23.5969 10.6996 24.5597 10.7853 25.3979Z" fill="#E9E9E9"/>
</g>
</svg>
