<svg width="20" height="20" viewBox="0 0 20 20" fill="none" xmlns="http://www.w3.org/2000/svg">
<path id="Vector" d="M10.4828 0.370005C10.424 0.1517 10.2261 0 10 0C9.7739 0 9.57595 0.1517 9.5172 0.370005L9.39795 0.81288C8.2706 4.99995 4.99995 8.2706 0.81288 9.39795L0.370005 9.5172C0.1517 9.57595 0 9.7739 0 10C0 10.2261 0.1517 10.424 0.370005 10.4828L0.81288 10.602C4.99995 11.7294 8.2706 15 9.39795 19.1871L9.5172 19.63C9.57595 19.8483 9.7739 20 10 20C10.2261 20 10.424 19.8483 10.4828 19.63L10.602 19.1871C11.7294 15 15 11.7294 19.1871 10.602L19.63 10.4828C19.8483 10.424 20 10.2261 20 10C20 9.7739 19.8483 9.57595 19.63 9.5172L19.1871 9.39795C15 8.2706 11.7294 4.99995 10.602 0.81288L10.4828 0.370005Z" fill="#232323"/>
</svg>
